<?xml version="1.0" encoding="utf-8"?>
<!-- Generator: Adobe Illustrator 16.0.0, SVG Export Plug-In . SVG Version: 6.00 Build 0)  -->
<!DOCTYPE svg PUBLIC "-//W3C//DTD SVG 1.1//EN" "http://www.w3.org/Graphics/SVG/1.1/DTD/svg11.dtd">
<svg version="1.1" id="Layer_1" xmlns="http://www.w3.org/2000/svg" xmlns:xlink="http://www.w3.org/1999/xlink" x="0px" y="0px"
	 width="633px" height="72.1px" viewBox="0 0 633 72.1" enable-background="new 0 0 633 72.1" xml:space="preserve">
<g>
	<defs>
		<rect id="SVGID_1_" y="0" width="633" height="72.1"/>
	</defs>
	<clipPath id="SVGID_2_">
		<use xlink:href="#SVGID_1_"  overflow="visible"/>
	</clipPath>
	<path clip-path="url(#SVGID_2_)" d="M608.2,40.5c0-3.1-0.2-6.9-2.3-6.9c-3.1,0-6.1,5-6.1,6.9v29.3h-19.6V40.5
		c0-4.7-0.5-6.9-2.4-6.9c-3.5,0-6.4,5-6.4,6.9v29.3h-19.3V40.1c0-5-0.2-12.3-4.9-14.6c1.7-2.3,6.9-5,11.8-5c5.7,0,10.1,3.5,12.3,9.4
		c3.6-5.6,7.6-9.5,14.8-9.5c6.8,0,10.4,4.2,12.5,10.2c4.3-6.1,9-10.2,15.6-10.2c11.1,0,13.4,9,13.4,21.4v11.1
		c0,4.9,0.3,9.7,5.4,13.4c-3.6,4.9-8.3,5.9-12.3,5.9s-12.5-1.7-12.5-12.3V40.5z M216.2,32.1v-9.2h4.7c0-4.5,1.4-15.8,20-15.8v15.8
		h11.5c16.3,0,23.3,1.2,23.3,15.6v31.3h-19.4v-26c0-9.4-3.8-11.6-11.5-11.6h-3.8v21.5c0,7.6,2.4,12.5,10.6,12.5
		c-3.6,4.2-9.4,5.9-13.5,5.9c-8.2,0-16.8-4-16.8-20.5V32.1H216.2z M60.4,49c-2.1,14.9-14.9,23.1-26.9,23.1C14.9,72.1,0,57.6,0,35.8
		C0,15.5,13.7,0,35.4,0c10.1,0,23.1,5,23.1,17.2c0,6.8-5.2,11.3-10.6,11.3c-13.4,0-8-14.6-15.1-14.6c-4.3,0-11.3,5.6-11.3,21.9
		c0,14.8,8.7,22.7,18.4,22.7C48.1,58.5,54,54.9,60.4,49 M192.5,22.9h19.3v29.9c0,4.9,0.3,9.7,5.4,13.4c-3.6,4.9-8.3,5.9-12.3,5.9
		c-4,0-10.2-1.6-12.5-8c-4.5,6.8-10.1,8-14.9,8c-11.6,0-17.7-11.6-17.7-26c0-13.9,6.2-25.5,17.9-25.5c5.9,0,10.4,1.9,14.9,7.1V22.9z
		 M192.5,37c-1-2.4-4.5-4.5-6.8-4.5c-5.6,0-7.3,8.7-7.3,14.6c0,6.4,1.9,12.7,7.6,12.7c3.1,0,5-1.7,6.2-4L192.5,37z M299.2,22.9v29.3
		c0,3.8,0.3,8.3,3.8,8.3c7.3,0,9.2-11.8,9.2-17.5c0-7.1-2.8-14.9-8-17c0-3.1,4-8.2,10.4-8.2c10.8,0,15.5,9.9,15.5,20.5
		c0,20.8-12.3,33.7-27.3,33.7c-12.8,0-22.7-6.4-22.7-19.6V22.9H299.2z M126.2,54c0.9,3.8,5.7,8,13.5,8c5.6,0,10.8-1.9,14.6-4.3
		c-3.6,9.7-11.3,14.4-20.7,14.4c-16.5,0-26.9-10.1-26.9-26c0-14.1,10.4-25.5,27.4-25.5c12.5,0,21.9,6.9,21.9,17.4
		c0,7.3-5.4,16.1-20,16.1H126.2z M131.1,45.7c4.9,0,8-3.6,8-8c0-4-2.8-5.9-5.7-5.9c-3.6,0-7.8,3.6-7.8,13.9H131.1z M84.2,29.9
		c4-6.6,8.3-9.4,12.5-9.4c5.4,0,9.9,4.3,9.9,10.2c0,6.6-4.7,10.9-9.4,10.9c-6.4,0-8.7-5-9.7-7.6l-3,3v32.8H64.9V40.1
		c0-5-0.2-12.3-4.9-14.6c1.7-2.3,6.9-5,11.8-5C77.6,20.5,82,24,84.2,29.9 M252.8,9.2c0,4.7,5,8.5,11.3,8.5c6.3,0,11.5-3.8,11.5-8.5
		c0-4.7-5.2-8.5-11.5-8.5C257.8,0.7,252.8,4.5,252.8,9.2 M426.9,32.1v21.5c0,7.6,2.4,12.5,10.6,12.5c-3.6,4.2-9.4,5.9-13.5,5.9
		c-8.2,0-16.8-4-16.8-20.5V32.1h-4.9v-9.2h4.7c0-4.5,1.4-15.8,20-15.8v15.8h9.4v9.2H426.9z M352.8,54c0.9,3.8,5.7,8,13.5,8
		c5.6,0,10.8-1.9,14.6-4.3c-3.6,9.7-11.3,14.4-20.7,14.4c-16.5,0-26.9-10.1-26.9-26c0-14.1,10.4-25.5,27.4-25.5
		c12.5,0,21.9,6.9,21.9,17.4c0,7.3-5.4,16.1-20,16.1H352.8z M357.7,45.7c4.9,0,8-3.6,8-8c0-4-2.8-5.9-5.7-5.9
		c-3.6,0-7.8,3.6-7.8,13.9H357.7z M458.4,54c0.9,3.8,5.7,8,13.5,8c5.6,0,10.8-1.9,14.6-4.3c-3.6,9.7-11.3,14.4-20.7,14.4
		c-16.5,0-26.9-10.1-26.9-26c0-14.1,10.4-25.5,27.4-25.5c12.5,0,21.9,6.9,21.9,17.4c0,7.3-5.4,16.1-20,16.1H458.4z M463.2,45.7
		c4.9,0,8-3.6,8-8c0-4-2.8-5.9-5.7-5.9c-3.6,0-7.8,3.6-7.8,13.9H463.2z M523.7,22.9h19.3v29.9c0,4.9,0.3,9.7,5.4,13.4
		c-3.6,4.9-8.3,5.9-12.3,5.9s-10.2-1.6-12.5-8c-4.5,6.8-10.1,8-14.9,8c-11.6,0-17.7-11.6-17.7-26c0-13.9,6.3-25.5,17.9-25.5
		c5.9,0,10.4,1.9,14.9,7.1V22.9z M523.7,37c-1-2.4-4.5-4.5-6.8-4.5c-5.6,0-7.3,8.7-7.3,14.6c0,6.4,1.9,12.7,7.6,12.7
		c3.1,0,5-1.7,6.2-4L523.7,37z"/>
</g>
</svg>
